# xmcd
#
# Track frame offsets: 
#        150
#        25821
#        47045
#        63383
#        79765
#        104013
#        121348
#        139747
#        163403
#        179592
#        198598
#        208823
#
# Disc length: 2982 seconds
#
# Revision: 0
# Processed by: cddbd v1.5PL3 Copyright (c) Steve Scherf et al.
# Submitted via: ExactAudioCopy v0.95a5
#
DISCID=b60ba40c
DTITLE=The Dime Store Poets - Any Color That U Please
DYEAR=2004
DGENRE=Folk
TTITLE0=Carolina (I'm Coming Home)
TTITLE1=I Won't Hide
TTITLE2=Any Color That U Please
TTITLE3=Homage to a Smile
TTITLE4=No Surprise
TTITLE5=Buffalo Man
TTITLE6=Every So Often
TTITLE7=If Jesus Wants...
TTITLE8=Sittin and Drinkin
TTITLE9=The Best Pill
TTITLE10=Don't Say I Didn't Warn Ya
TTITLE11=No Inside Track
EXTD=
EXTT0=
EXTT1=
EXTT2=
EXTT3=
EXTT4=
EXTT5=
EXTT6=
EXTT7=
EXTT8=
EXTT9=
EXTT10=
EXTT11=
PLAYORDER=
